<svg width="66" height="66" viewBox="0 0 66 66" fill="none" xmlns="http://www.w3.org/2000/svg">
<circle cx="33" cy="33" r="31.5" fill="#FFC737" stroke="white" stroke-width="3"/>
<path d="M29.4261 40.5297C29.4261 38.5746 29.6635 37.0176 30.1383 35.8585C30.6131 34.6994 31.4789 33.5613 32.7357 32.4441C34.0065 31.3129 34.8514 30.3982 35.2704 29.7C35.6893 28.9878 35.8988 28.2406 35.8988 27.4586C35.8988 25.0986 34.8095 23.9185 32.631 23.9185C31.5976 23.9185 30.7667 24.2397 30.1383 24.8821C29.5238 25.5105 29.2026 26.3833 29.1747 27.5005H23.1C23.1279 24.8332 23.9868 22.7455 25.6765 21.2373C27.3802 19.7291 29.6984 18.975 32.631 18.975C35.5916 18.975 37.8888 19.6942 39.5227 21.1325C41.1565 22.557 41.9735 24.5749 41.9735 27.1863C41.9735 28.3733 41.7082 29.4975 41.1775 30.5588C40.6468 31.6062 39.7182 32.7722 38.3915 34.057L36.6948 35.6699C35.6335 36.6894 35.026 37.8834 34.8724 39.2519L34.7886 40.5297H29.4261ZM28.8186 46.9605C28.8186 46.0249 29.1328 45.2568 29.7612 44.6563C30.4036 44.0419 31.2206 43.7346 32.2121 43.7346C33.2036 43.7346 34.0135 44.0419 34.6419 44.6563C35.2843 45.2568 35.6055 46.0249 35.6055 46.9605C35.6055 47.8822 35.2913 48.6433 34.6629 49.2438C34.0484 49.8443 33.2315 50.1445 32.2121 50.1445C31.1926 50.1445 30.3687 49.8443 29.7403 49.2438C29.1258 48.6433 28.8186 47.8822 28.8186 46.9605Z" fill="white"/>
</svg>
