<svg width="75" height="66" viewBox="0 0 75 66" fill="none" xmlns="http://www.w3.org/2000/svg">
<path d="M0 9.29577C0 4.16186 4.16186 0 9.29578 0H27.8873C33.0213 0 37.1831 4.16186 37.1831 9.29578V56.7042C37.1831 61.8381 33.0213 66 27.8873 66H9.29578C4.16186 66 0 61.8381 0 56.7042V9.29577Z" fill="#DABC53"/>
<path d="M4.64789 10.2253C4.64789 7.65839 6.72882 5.57745 9.29578 5.57745H64.4507C67.0177 5.57745 69.0986 7.65838 69.0986 10.2253V57.3239C69.0986 59.8909 67.0177 61.9718 64.4507 61.9718H9.29578C6.72883 61.9718 4.64789 59.8909 4.64789 57.3239V10.2253Z" fill="white"/>
<path d="M0 19.5211C0 14.3872 4.16186 10.2253 9.29578 10.2253H65.0704C70.2044 10.2253 74.3662 14.3872 74.3662 19.5211V56.7042C74.3662 61.8382 70.2044 66 65.0704 66H9.29578C4.16186 66 0 61.8382 0 56.7042V19.5211Z" fill="#FFC737"/>
<path d="M31.6057 14.8732C31.6057 9.73931 35.7675 5.57745 40.9014 5.57745H65.3803C70.5142 5.57745 74.6761 9.73932 74.6761 14.8732V42.7606C74.6761 47.8945 70.5142 52.0563 65.3803 52.0563H40.9014C35.7675 52.0563 31.6057 47.8945 31.6057 42.7606V14.8732Z" fill="#FFC737"/>
</svg>
